<svg width="40" height="40" viewBox="0 0 40 40" fill="none" xmlns="http://www.w3.org/2000/svg">
<path d="M32 2H30V4H32V2Z" fill="currentColor"/>
<path d="M34 2H32V4H34V2Z" fill="currentColor"/>
<path d="M30 4H28V6H30V4Z" fill="currentColor"/>
<path d="M32 4H30V6H32V4Z" fill="currentColor"/>
<path d="M34 4H32V6H34V4Z" fill="currentColor"/>
<path d="M36 4H34V6H36V4Z" fill="currentColor"/>
<path d="M28 6H26V8H28V6Z" fill="currentColor"/>
<path d="M30 6H28V8H30V6Z" fill="currentColor"/>
<path d="M32 6H30V8H32V6Z" fill="currentColor"/>
<path d="M34 6H32V8H34V6Z" fill="currentColor"/>
<path d="M36 6H34V8H36V6Z" fill="currentColor"/>
<path d="M38 6H36V8H38V6Z" fill="currentColor"/>
<path d="M26 8H24V10H26V8Z" fill="currentColor"/>
<path d="M28 8H26V10H28V8Z" fill="currentColor"/>
<path d="M30 8H28V10H30V8Z" fill="currentColor"/>
<path d="M32 8H30V10H32V8Z" fill="currentColor"/>
<path d="M34 8H32V10H34V8Z" fill="currentColor"/>
<path d="M36 8H34V10H36V8Z" fill="currentColor"/>
<path d="M38 8H36V10H38V8Z" fill="currentColor"/>
<path d="M24 10H22V12H24V10Z" fill="currentColor"/>
<path d="M26 10H24V12H26V10Z" fill="currentColor"/>
<path d="M28 10H26V12H28V10Z" fill="currentColor"/>
<path d="M30 10H28V12H30V10Z" fill="currentColor"/>
<path d="M32 10H30V12H32V10Z" fill="currentColor"/>
<path d="M34 10H32V12H34V10Z" fill="currentColor"/>
<path d="M36 10H34V12H36V10Z" fill="currentColor"/>
<path d="M22 12H20V14H22V12Z" fill="currentColor"/>
<path d="M24 12H22V14H24V12Z" fill="currentColor"/>
<path d="M26 12H24V14H26V12Z" fill="currentColor"/>
<path d="M28 12H26V14H28V12Z" fill="currentColor"/>
<path d="M30 12H28V14H30V12Z" fill="currentColor"/>
<path d="M32 12H30V14H32V12Z" fill="currentColor"/>
<path d="M34 12H32V14H34V12Z" fill="currentColor"/>
<path d="M20 14H18V16H20V14Z" fill="currentColor"/>
<path d="M22 14H20V16H22V14Z" fill="currentColor"/>
<path d="M24 14H22V16H24V14Z" fill="currentColor"/>
<path d="M26 14H24V16H26V14Z" fill="currentColor"/>
<path d="M28 14H26V16H28V14Z" fill="currentColor"/>
<path d="M30 14H28V16H30V14Z" fill="currentColor"/>
<path d="M32 14H30V16H32V14Z" fill="currentColor"/>
<path d="M16 16H14V18H16V16Z" fill="currentColor"/>
<path d="M18 16H16V18H18V16Z" fill="currentColor"/>
<path d="M20 16H18V18H20V16Z" fill="currentColor"/>
<path d="M22 16H20V18H22V16Z" fill="currentColor"/>
<path d="M24 16H22V18H24V16Z" fill="currentColor"/>
<path d="M26 16H24V18H26V16Z" fill="currentColor"/>
<path d="M28 16H26V18H28V16Z" fill="currentColor"/>
<path d="M30 16H28V18H30V16Z" fill="currentColor"/>
<path d="M14 18H12V20H14V18Z" fill="currentColor"/>
<path d="M20 18H18V20H20V18Z" fill="currentColor"/>
<path d="M22 18H20V20H22V18Z" fill="currentColor"/>
<path d="M24 18H22V20H24V18Z" fill="currentColor"/>
<path d="M26 18H24V20H26V18Z" fill="currentColor"/>
<path d="M28 18H26V20H28V18Z" fill="currentColor"/>
<path d="M10 20H8V22H10V20Z" fill="currentColor"/>
<path d="M12 20H10V22H12V20Z" fill="currentColor"/>
<path d="M22 20H20V22H22V20Z" fill="currentColor"/>
<path d="M24 20H22V22H24V20Z" fill="currentColor"/>
<path d="M26 20H24V22H26V20Z" fill="currentColor"/>
<path d="M8 22H6V24H8V22Z" fill="currentColor"/>
<path d="M14 22H12V24H14V22Z" fill="currentColor"/>
<path d="M24 22H22V24H24V22Z" fill="currentColor"/>
<path d="M6 24H4V26H6V24Z" fill="currentColor"/>
<path d="M16 24H14V26H16V24Z" fill="currentColor"/>
<path d="M20 24H18V26H20V24Z" fill="currentColor"/>
<path d="M24 24H22V26H24V24Z" fill="currentColor"/>
<path d="M6 26H4V28H6V26Z" fill="currentColor"/>
<path d="M18 26H16V28H18V26Z" fill="currentColor"/>
<path d="M22 26H20V28H22V26Z" fill="currentColor"/>
<path d="M6 28H4V30H6V28Z" fill="currentColor"/>
<path d="M16 28H14V30H16V28Z" fill="currentColor"/>
<path d="M20 28H18V30H20V28Z" fill="currentColor"/>
<path d="M6 30H4V32H6V30Z" fill="currentColor"/>
<path d="M14 30H12V32H14V30Z" fill="currentColor"/>
<path d="M16 30H14V32H16V30Z" fill="currentColor"/>
<path d="M20 30H18V32H20V30Z" fill="currentColor"/>
<path d="M6 32H4V34H6V32Z" fill="currentColor"/>
<path d="M12 32H10V34H12V32Z" fill="currentColor"/>
<path d="M14 32H12V34H14V32Z" fill="currentColor"/>
<path d="M20 32H18V34H20V32Z" fill="currentColor"/>
<path d="M4 34H2V36H4V34Z" fill="currentColor"/>
<path d="M18 34H16V36H18V34Z" fill="currentColor"/>
<path d="M6 36H4V38H6V36Z" fill="currentColor"/>
<path d="M8 36H6V38H8V36Z" fill="currentColor"/>
<path d="M10 36H8V38H10V36Z" fill="currentColor"/>
<path d="M12 36H10V38H12V36Z" fill="currentColor"/>
<path d="M14 36H12V38H14V36Z" fill="currentColor"/>
<path d="M16 36H14V38H16V36Z" fill="currentColor"/>
</svg>
