<svg width="42" height="42" viewBox="0 0 42 42" fill="none" xmlns="http://www.w3.org/2000/svg">
<path d="M14.7 6.30005H12.6V8.40005H14.7V6.30005Z" fill="currentColor"/>
<path d="M16.8 6.30005H14.7V8.40005H16.8V6.30005Z" fill="currentColor"/>
<path d="M18.9 6.30005H16.8V8.40005H18.9V6.30005Z" fill="currentColor"/>
<path d="M21 6.30005H18.9V8.40005H21V6.30005Z" fill="currentColor"/>
<path d="M23.1 6.30005H21V8.40005H23.1V6.30005Z" fill="currentColor"/>
<path d="M25.2 6.30005H23.1V8.40005H25.2V6.30005Z" fill="currentColor"/>
<path d="M27.3 6.30005H25.2V8.40005H27.3V6.30005Z" fill="currentColor"/>
<path d="M29.4 6.30005H27.3V8.40005H29.4V6.30005Z" fill="currentColor"/>
<path d="M31.5 6.30005H29.4V8.40005H31.5V6.30005Z" fill="currentColor"/>
<path d="M33.6 6.30005H31.5V8.40005H33.6V6.30005Z" fill="currentColor"/>
<path d="M14.7 8.3999H12.6V10.4999H14.7V8.3999Z" fill="currentColor"/>
<path d="M16.8 8.3999H14.7V10.4999H16.8V8.3999Z" fill="currentColor"/>
<path d="M18.9 8.3999H16.8V10.4999H18.9V8.3999Z" fill="currentColor"/>
<path d="M21 8.3999H18.9V10.4999H21V8.3999Z" fill="currentColor"/>
<path d="M23.1 8.3999H21V10.4999H23.1V8.3999Z" fill="currentColor"/>
<path d="M25.2 8.3999H23.1V10.4999H25.2V8.3999Z" fill="currentColor"/>
<path d="M27.3 8.3999H25.2V10.4999H27.3V8.3999Z" fill="currentColor"/>
<path d="M29.4 8.3999H27.3V10.4999H29.4V8.3999Z" fill="currentColor"/>
<path d="M31.5 8.3999H29.4V10.4999H31.5V8.3999Z" fill="currentColor"/>
<path d="M33.6 8.3999H31.5V10.4999H33.6V8.3999Z" fill="currentColor"/>
<path d="M14.7 10.5H12.6V12.6H14.7V10.5Z" fill="currentColor"/>
<path d="M16.8 10.5H14.7V12.6H16.8V10.5Z" fill="currentColor"/>
<path d="M18.9 10.5H16.8V12.6H18.9V10.5Z" fill="currentColor"/>
<path d="M21 10.5H18.9V12.6H21V10.5Z" fill="currentColor"/>
<path d="M23.1 10.5H21V12.6H23.1V10.5Z" fill="currentColor"/>
<path d="M25.2 10.5H23.1V12.6H25.2V10.5Z" fill="currentColor"/>
<path d="M27.3 10.5H25.2V12.6H27.3V10.5Z" fill="currentColor"/>
<path d="M29.4 10.5H27.3V12.6H29.4V10.5Z" fill="currentColor"/>
<path d="M31.5 10.5H29.4V12.6H31.5V10.5Z" fill="currentColor"/>
<path d="M33.6 10.5H31.5V12.6H33.6V10.5Z" fill="currentColor"/>
<path d="M14.7 12.6001H12.6V14.7001H14.7V12.6001Z" fill="currentColor"/>
<path d="M16.8 12.6001H14.7V14.7001H16.8V12.6001Z" fill="currentColor"/>
<path d="M18.9 12.6001H16.8V14.7001H18.9V12.6001Z" fill="currentColor"/>
<path d="M21 12.6001H18.9V14.7001H21V12.6001Z" fill="currentColor"/>
<path d="M23.1 12.6001H21V14.7001H23.1V12.6001Z" fill="currentColor"/>
<path d="M25.2 12.6001H23.1V14.7001H25.2V12.6001Z" fill="currentColor"/>
<path d="M27.3 12.6001H25.2V14.7001H27.3V12.6001Z" fill="currentColor"/>
<path d="M29.4 12.6001H27.3V14.7001H29.4V12.6001Z" fill="currentColor"/>
<path d="M31.5 12.6001H29.4V14.7001H31.5V12.6001Z" fill="currentColor"/>
<path d="M33.6 12.6001H31.5V14.7001H33.6V12.6001Z" fill="currentColor"/>
<path d="M14.7 14.7H12.6V16.8H14.7V14.7Z" fill="currentColor"/>
<path d="M33.6 14.7H31.5V16.8H33.6V14.7Z" fill="currentColor"/>
<path d="M14.7 16.8H12.6V18.9H14.7V16.8Z" fill="currentColor"/>
<path d="M33.6 16.8H31.5V18.9H33.6V16.8Z" fill="currentColor"/>
<path d="M14.7 18.8999H12.6V20.9999H14.7V18.8999Z" fill="currentColor"/>
<path d="M33.6 18.8999H31.5V20.9999H33.6V18.8999Z" fill="currentColor"/>
<path d="M14.7 21H12.6V23.1H14.7V21Z" fill="currentColor"/>
<path d="M33.6 21H31.5V23.1H33.6V21Z" fill="currentColor"/>
<path d="M14.7 23.1001H12.6V25.2001H14.7V23.1001Z" fill="currentColor"/>
<path d="M33.6 23.1001H31.5V25.2001H33.6V23.1001Z" fill="currentColor"/>
<path d="M14.7 25.2H12.6V27.3H14.7V25.2Z" fill="currentColor"/>
<path d="M33.6 25.2H31.5V27.3H33.6V25.2Z" fill="currentColor"/>
<path d="M8.4 27.3H6.3V29.4H8.4V27.3Z" fill="currentColor"/>
<path d="M10.5 27.3H8.4V29.4H10.5V27.3Z" fill="currentColor"/>
<path d="M12.6 27.3H10.5V29.4H12.6V27.3Z" fill="currentColor"/>
<path d="M14.7 27.3H12.6V29.4H14.7V27.3Z" fill="currentColor"/>
<path d="M27.3 27.3H25.2V29.4H27.3V27.3Z" fill="currentColor"/>
<path d="M29.4 27.3H27.3V29.4H29.4V27.3Z" fill="currentColor"/>
<path d="M31.5 27.3H29.4V29.4H31.5V27.3Z" fill="currentColor"/>
<path d="M33.6 27.3H31.5V29.4H33.6V27.3Z" fill="currentColor"/>
<path d="M6.3 29.3999H4.2V31.4999H6.3V29.3999Z" fill="currentColor"/>
<path d="M8.4 29.3999H6.3V31.4999H8.4V29.3999Z" fill="currentColor"/>
<path d="M10.5 29.3999H8.4V31.4999H10.5V29.3999Z" fill="currentColor"/>
<path d="M12.6 29.3999H10.5V31.4999H12.6V29.3999Z" fill="currentColor"/>
<path d="M14.7 29.3999H12.6V31.4999H14.7V29.3999Z" fill="currentColor"/>
<path d="M25.2 29.3999H23.1V31.4999H25.2V29.3999Z" fill="currentColor"/>
<path d="M27.3 29.3999H25.2V31.4999H27.3V29.3999Z" fill="currentColor"/>
<path d="M29.4 29.3999H27.3V31.4999H29.4V29.3999Z" fill="currentColor"/>
<path d="M31.5 29.3999H29.4V31.4999H31.5V29.3999Z" fill="currentColor"/>
<path d="M33.6 29.3999H31.5V31.4999H33.6V29.3999Z" fill="currentColor"/>
<path d="M6.3 31.5H4.2V33.6H6.3V31.5Z" fill="currentColor"/>
<path d="M8.4 31.5H6.3V33.6H8.4V31.5Z" fill="currentColor"/>
<path d="M10.5 31.5H8.4V33.6H10.5V31.5Z" fill="currentColor"/>
<path d="M12.6 31.5H10.5V33.6H12.6V31.5Z" fill="currentColor"/>
<path d="M14.7 31.5H12.6V33.6H14.7V31.5Z" fill="currentColor"/>
<path d="M25.2 31.5H23.1V33.6H25.2V31.5Z" fill="currentColor"/>
<path d="M27.3 31.5H25.2V33.6H27.3V31.5Z" fill="currentColor"/>
<path d="M29.4 31.5H27.3V33.6H29.4V31.5Z" fill="currentColor"/>
<path d="M31.5 31.5H29.4V33.6H31.5V31.5Z" fill="currentColor"/>
<path d="M33.6 31.5H31.5V33.6H33.6V31.5Z" fill="currentColor"/>
<path d="M8.4 33.6001H6.3V35.7001H8.4V33.6001Z" fill="currentColor"/>
<path d="M10.5 33.6001H8.4V35.7001H10.5V33.6001Z" fill="currentColor"/>
<path d="M12.6 33.6001H10.5V35.7001H12.6V33.6001Z" fill="currentColor"/>
<path d="M27.3 33.6001H25.2V35.7001H27.3V33.6001Z" fill="currentColor"/>
<path d="M29.4 33.6001H27.3V35.7001H29.4V33.6001Z" fill="currentColor"/>
<path d="M31.5 33.6001H29.4V35.7001H31.5V33.6001Z" fill="currentColor"/>
</svg>
